<?xml version="1.0" encoding="UTF-8" standalone="no"?>
<svg
   xmlns:dc="http://purl.org/dc/elements/1.1/"
   xmlns:cc="http://creativecommons.org/ns#"
   xmlns:rdf="http://www.w3.org/1999/02/22-rdf-syntax-ns#"
   xmlns:svg="http://www.w3.org/2000/svg"
   xmlns="http://www.w3.org/2000/svg"
   xmlns:sodipodi="http://sodipodi.sourceforge.net/DTD/sodipodi-0.dtd"
   xmlns:inkscape="http://www.inkscape.org/namespaces/inkscape"
   width="210mm"
   height="297mm"
   viewBox="0 0 210 297"
   version="1.1"
   id="svg8"
   sodipodi:docname="astronaut.svg"
   inkscape:version="1.0.1 (3bc2e813f5, 2020-09-07)">
  <defs
     id="defs2">
    <inkscape:path-effect
       effect="attach_path"
       id="path-effect24"
       lpeversion="1"
       startposition="0" />
  </defs>
  <sodipodi:namedview
     id="base"
     pagecolor="#ffffff"
     bordercolor="#666666"
     borderopacity="1.0"
     inkscape:pageopacity="0.0"
     inkscape:pageshadow="2"
     inkscape:zoom="1.2795541"
     inkscape:cx="291.81096"
     inkscape:cy="334.03162"
     inkscape:document-units="mm"
     inkscape:current-layer="layer11"
     inkscape:document-rotation="0"
     showgrid="false"
     inkscape:window-width="1920"
     inkscape:window-height="1057"
     inkscape:window-x="-8"
     inkscape:window-y="-8"
     inkscape:window-maximized="1"
     showguides="false" />
  <metadata
     id="metadata5">
    <rdf:RDF>
      <cc:Work
         rdf:about="">
        <dc:format>image/svg+xml</dc:format>
        <dc:type
           rdf:resource="http://purl.org/dc/dcmitype/StillImage" />
      </cc:Work>
    </rdf:RDF>
  </metadata>
  <g
     inkscape:groupmode="layer"
     id="layer4"
     inkscape:label="backpack"
     style="display:inline;opacity:1">
    <path
       style="fill:none;stroke:#000000;stroke-width:0.298253px;stroke-linecap:butt;stroke-linejoin:miter;stroke-opacity:1"
       d="m 62.235257,69.739025 c 1.606197,-3.946008 5.880768,-5.906548 7.709753,-6.022855 6.531873,-0.41537 27.091212,0.623054 27.091212,0.623054 L 97.78578,106.29153 61.271538,98.295676 c 0,0 0.5354,-22.845322 0.963719,-28.556651 z"
       id="path47"
       sodipodi:nodetypes="cscccc"
       inkscape:export-xdpi="175.74057"
       inkscape:export-ydpi="175.74057" />
    <path
       style="fill:#ac9393;stroke-width:0.381718"
       d="m 300.23861,385.79086 c -37.12496,-8.14977 -67.59472,-14.91256 -67.71058,-15.02841 -0.44435,-0.44436 1.81526,-75.38146 2.97582,-98.6891 0.40544,-8.14258 0.41244,-8.18732 1.67191,-10.6883 4.06578,-8.07356 12.67212,-15.31269 22.15476,-18.63525 2.21297,-0.77539 3.91803,-1.00756 9.92467,-1.35143 10.71539,-0.61344 50.45455,0.31991 87.22265,2.04859 5.14366,0.24183 9.38964,0.47116 9.43552,0.50962 0.10112,0.0848 2.77947,147.38394 2.77947,152.86025 0,2.85754 -0.12442,3.85586 -0.47715,3.82863 -0.26243,-0.0203 -30.85211,-6.70483 -67.97707,-14.8546 z"
       id="path72"
       transform="scale(0.26458333)"
       inkscape:export-xdpi="175.74057"
       inkscape:export-ydpi="175.74057" />
    <path
       style="fill:#c8b7b7;fill-opacity:1;stroke-width:0.0516946"
       d="M 64.972003,70.205088 C 63.6614,69.90312 62.581649,69.649389 62.572555,69.641243 c -0.02262,-0.02027 0.216707,-0.503391 0.436994,-0.88211 0.492617,-0.846916 1.371922,-1.864262 2.213551,-2.561056 1.325023,-1.096999 3.156019,-2.005221 4.372557,-2.168901 1.480228,-0.199157 4.153647,-0.231642 9.511126,-0.11557 5.470281,0.118515 13.480658,0.406689 16.677446,0.599975 0.398278,0.02408 0.787212,0.04345 0.864304,0.04305 l 0.14016,-7.94e-4 0.02447,1.07436 0.02447,1.074359 -0.46537,-0.01159 c -0.255955,-0.0064 -2.280187,-0.04176 -4.498295,-0.07863 -7.37421,-0.122576 -14.18722,-0.252193 -17.760741,-0.337897 -3.677499,-0.0882 -1.453091,-0.753512 -2.449176,0.45596 -0.754446,0.916066 -1.645473,1.530312 -2.314543,3.55841 -0.101397,0.307353 -0.03679,1.020921 -0.05103,1.018778 -0.01423,-0.0021 -3.015866,-0.802587 -4.326472,-1.104556 z"
       id="path229"
       sodipodi:nodetypes="cssssssccccsssssccc"
       inkscape:export-xdpi="175.74057"
       inkscape:export-ydpi="175.74057" />
  </g>
  <g
     inkscape:groupmode="layer"
     id="layer11"
     inkscape:label="backpack 1">
    <path
       style="display:inline;mix-blend-mode:normal;fill:#d40000;fill-opacity:1;stroke:#000000;stroke-width:0.235726px;stroke-linecap:butt;stroke-linejoin:miter;stroke-opacity:1"
       d="m 99.589203,83.55665 c 0,0 -1.767568,-2.348887 1.800717,-4.789958 2.37291,-1.623307 6.26926,-0.03623 7.68143,0.447195 3.83143,3.478229 2.90225,2.800308 6.04904,5.415297 0,0 2.49796,-0.742687 2.76214,0.62219 0.31503,1.627687 -1.03432,0.789661 -1.03432,0.789661 0,0 3.49722,1.575403 3.44842,4.299293 -0.0488,2.723902 -3.53858,5.556648 -5.61657,5.955992 -4.26954,0.820512 -5.94516,-2.912084 -6.7998,-3.715259 -2.98708,-2.807167 -8.291057,-9.024456 -8.291057,-9.024456 z"
       id="path191-2"
       sodipodi:nodetypes="csccscssscc"
       inkscape:export-xdpi="175.74057"
       inkscape:export-ydpi="175.74057" />
    <path
       style="display:inline;mix-blend-mode:normal;fill:#ff0000;fill-opacity:1;stroke-width:0.0504981"
       d="m 104.69455,85.369439 c -2.40237,-2.803003 -4.3915,-5.130945 -4.42029,-5.173218 -0.0434,-0.06386 -0.01,-0.118483 0.19802,-0.322829 0.96742,-0.950521 1.83009,-1.432453 2.84587,-1.589878 1.23827,-0.19191 2.87892,0.03675 5.00369,0.697383 l 0.6674,0.384195 0.71957,0.629581 c 0.37869,0.331337 1.25457,1.093744 1.84943,1.726343 1.05502,1.121958 2.09582,1.970366 2.67665,2.341842 l 0.87418,0.747364 0.63958,-0.182566 c 1.73299,-0.06345 1.93141,0.23657 1.94894,1.185084 -0.0243,0.624477 -0.75575,-0.08175 -0.97498,0.141529 -0.30646,0.312117 0.22018,0.285493 1.81184,1.379377 0.84189,0.633025 1.35062,1.588915 1.49806,2.224935 0.0978,0.421846 -0.0448,1.463883 -0.0448,1.463883 -0.66677,1.864473 -1.94449,2.185325 -3.22246,2.993187 -7.97623,1.517186 -10.81157,-7.187798 -12.07068,-8.646212 z"
       id="path213-2"
       inkscape:export-xdpi="175.74057"
       inkscape:export-ydpi="175.74057"
       sodipodi:nodetypes="cccsccssscccscscccc" />
  </g>
  <g
     inkscape:label="outline"
     inkscape:groupmode="layer"
     id="layer1"
     style="display:inline">
    <path
       style="fill:#f2f2f2;stroke:#000000;stroke-width:0.242617px;stroke-linecap:butt;stroke-linejoin:miter;stroke-opacity:1"
       d="m 90.418557,54.332858 c 15.721773,0.296286 20.947613,14.651998 21.295523,20.58543 0.59737,10.18766 -0.0481,34.701782 -0.0481,34.701782 0,0 0.59848,0.1094 2.93709,1.69965 1.30962,2.61924 1.5345,5.43166 -0.52348,8.14444 -4.02241,2.89987 -6.48851,1.86139 -10.51091,1.01949 l -11.197031,-3.89226 0.03543,-5.60534 -4.240438,-0.0981 v 0 c 0,0 2.700816,1.29606 3.168538,2.79277 0.561266,1.96443 0.61363,5.66252 -0.415358,6.59796 -2.619241,1.21608 -10.491896,1.11009 -14.233669,0.0811 -3.367596,-0.93545 -11.052822,-4.19516 -11.052822,-4.19516 0.33403,-14.58587 0.300933,-34.031767 1.500772,-40.119443 0.755937,-8.454344 7.660055,-21.690654 23.28445,-21.712796 z"
       id="path18"
       sodipodi:nodetypes="csccccccccccccccc"
       inkscape:export-xdpi="175.74057"
       inkscape:export-ydpi="175.74057" />
    <path
       style="fill:#aa0000;stroke-width:0.381718"
       d="m 404.00178,457.36105 c -8.93987,-1.66087 -13.92218,-3.14355 -33.59122,-9.99636 l -20.61279,-7.18162 0.14302,-10.53191 0.14303,-10.53191 -1.24047,-0.24809 c -0.68225,-0.13646 -4.56857,-0.2481 -8.63625,-0.2481 -6.27441,0 -7.3958,0.0856 -7.3958,0.56482 0,0.31065 0.73004,0.93537 1.62231,1.38825 3.98226,2.02128 8.27574,5.67472 9.50843,8.091 2.28907,4.48693 2.76696,16.76122 0.87444,22.45907 -1.00512,3.02611 -2.79674,3.90572 -10.56941,5.1891 -3.1122,0.51387 -6.42652,0.64559 -16.13192,0.64107 -17.00182,-0.008 -22.82952,-0.82636 -34.74647,-4.87988 -6.05277,-2.05884 -18.56888,-6.86855 -29.09593,-11.18103 l -5.43949,-2.22833 0.002,-3.43739 c 0.003,-4.6201 1.05204,-65.54121 1.3307,-77.2999 0.80411,-33.93009 1.91127,-54.84532 3.47553,-65.65556 0.31898,-2.20442 0.82541,-5.81166 1.1254,-8.01609 0.29999,-2.20442 1.0513,-6.06932 1.66958,-8.58866 4.20004,-17.1142 12.56156,-32.43516 24.24118,-44.41758 7.36606,-7.55704 14.18405,-12.49928 23.25881,-16.85994 8.11936,-3.90156 15.167,-6.04362 24.67549,-7.4999 6.07557,-0.9305 18.40263,-0.92748 24.39327,0.006 14.13231,2.2021 26.23258,7.41697 36.52023,15.73919 13.39792,10.83827 23.41092,26.25029 28.95484,44.56733 1.84636,6.10036 2.81577,11.81442 3.28173,19.34389 0.96386,15.57476 0.80143,93.33126 -0.25408,121.63151 l -0.24405,6.54342 1.84429,0.81582 c 1.01435,0.4487 3.53528,1.8609 5.60204,3.13823 4.19154,2.59052 4.46355,2.95458 6.23379,8.34339 0.92929,2.82885 1.06848,3.856 1.08627,8.01608 0.0183,4.2759 -0.0907,5.08865 -1.04911,7.82523 -0.58824,1.67956 -1.76824,4.18791 -2.62223,5.57411 -1.31795,2.13932 -2.02079,2.81415 -4.64876,4.46358 -5.9968,3.76384 -10.35967,5.06175 -16.80355,4.99889 -2.3283,-0.0227 -5.43568,-0.26469 -6.9053,-0.53771 z"
       id="path62"
       transform="scale(0.26458333)"
       inkscape:export-xdpi="175.74057"
       inkscape:export-ydpi="175.74057" />
    <path
       style="fill:#ff0000;fill-opacity:1;stroke-width:0.381718"
       d="m 405.75308,457.38522 c -6.96734,-0.80654 -15.66994,-3.45854 -48.24404,-14.70173 l -7.58588,-2.61832 0.19293,-10.55395 0.19292,-10.55395 -1.14799,-0.22959 c -1.66704,-0.33341 -15.6657,-0.27069 -16.20572,0.0726 -0.67175,0.42704 -0.17176,0.97599 2.17473,2.38771 3.29422,1.98188 6.80311,4.95066 8.01648,6.78252 1.7694,2.67131 2.46777,6.52942 2.46568,13.62152 -0.003,9.44342 -0.97371,11.79377 -5.44505,13.1808 -4.88569,1.51556 -9.11809,1.89252 -21.26014,1.89352 -22.91255,0.002 -26.30139,-0.78933 -59.06517,-13.79047 -5.82282,-2.31058 -10.65612,-4.31766 -10.74067,-4.46018 -0.1545,-0.26043 0.14195,-20.62239 0.89851,-61.71579 1.49972,-81.45838 3.65758,-99.98572 14.14005,-121.40599 7.12558,-14.56069 18.32215,-27.46144 30.96398,-35.67687 8.05533,-5.23484 18.89335,-9.64327 28.57478,-11.62294 10.31759,-2.10976 23.94208,-2.11621 33.88903,-0.016 24.21143,5.11194 42.95104,20.28391 54.69432,44.28164 5.35064,10.93419 7.95633,19.99625 9.16486,31.87348 0.98077,9.63884 0.77114,114.00888 -0.25684,127.87566 l -0.21223,2.86288 2.60612,1.23871 c 4.03054,1.91574 8.43226,4.89403 9.28835,6.28468 2.54151,4.12846 3.79445,13.18106 2.52488,18.2426 -0.89828,3.58127 -3.38908,8.43492 -5.1408,10.01749 -2.11206,1.90812 -6.44799,4.39697 -9.52342,5.4665 -4.59041,1.59638 -8.92286,1.9623 -14.95967,1.26349 z"
       id="path172"
       transform="scale(0.26458333)"
       inkscape:export-xdpi="175.74057"
       inkscape:export-ydpi="175.74057" />
  </g>
  <g
     inkscape:groupmode="layer"
     id="layer7"
     inkscape:label="light"
     style="display:inline">
    <path
       style="fill:#d40000;fill-opacity:1;stroke-width:0.100996"
       d="m 80.034634,120.71499 c -1.928939,-0.18029 -3.887613,-0.70327 -6.993411,-1.86733 -2.337356,-0.87604 -7.088201,-2.7743 -7.133209,-2.85017 -0.04088,-0.0689 0.03756,-5.45634 0.237731,-16.328971 0.396801,-21.552529 0.967735,-26.454555 3.741221,-32.122001 1.88531,-3.852516 4.847736,-7.265839 8.192553,-9.439505 1.341496,-0.871786 3.362542,-1.839066 4.94233,-2.36542 4.468651,-1.488863 9.536977,-1.525016 13.89676,-0.09912 1.105572,0.361584 3.845281,1.616249 3.746021,1.71551 -0.0296,0.0296 -0.59311,-0.01765 -1.252241,-0.104973 -6.898166,-0.91404 -12.176673,0.0182 -16.924922,2.989112 -2.06276,1.29064 -4.1065,3.174312 -5.355611,4.936156 -2.301052,3.245583 -3.754017,8.001053 -4.212103,13.785998 -0.482571,6.094106 -1.576938,24.541754 -1.88223,31.728554 -0.06669,1.56999 -0.06052,1.64981 0.16328,2.11212 0.484195,1.00022 2.110986,2.35316 3.93551,3.27303 2.502032,1.26145 4.694002,1.64523 9.342159,1.63568 2.300611,-0.005 5.15062,-0.17007 6.601458,-0.38298 l 0.440679,-0.0647 -0.06867,0.64441 c -0.09248,0.86788 -0.310203,1.6166 -0.563861,1.93908 -0.255627,0.32497 -1.168919,0.62602 -2.521247,0.83107 -1.072978,0.1627 -6.710579,0.18598 -8.332197,0.0344 z"
       id="path170"
       inkscape:export-xdpi="175.74057"
       inkscape:export-ydpi="175.74057" />
    <path
       style="fill:#ff0000;fill-opacity:1;stroke-width:0.134958"
       d="m 407.64084,457.52403 c -6.40789,-0.55559 -12.53603,-2.20867 -30.63543,-8.26401 -8.55118,-2.86089 -26.8223,-9.13301 -26.94682,-9.25033 -0.0905,-0.0853 0.1306,-12.72144 0.22424,-12.81508 0.0455,-0.0455 35.36469,11.62705 39.1387,12.93485 6.47061,2.24224 15.50804,3.83143 24.50271,4.30869 5.26898,0.27957 9.29105,-0.45062 13.28549,-2.41194 3.15364,-1.54848 5.89531,-3.70821 8.15012,-6.42017 l 0.44883,-0.53983 -0.0791,2.02437 c -0.12209,3.12421 -0.68331,5.16523 -2.37499,8.6373 -1.12953,2.3183 -2.09344,3.80863 -3.10096,4.79448 -1.65144,1.61594 -6.42181,4.39239 -9.39753,5.46956 -1.58447,0.57355 -3.58949,1.08645 -5.29565,1.35465 -1.61359,0.25366 -5.92623,0.35029 -7.91961,0.17746 z"
       id="path176"
       transform="scale(0.26458333)"
       inkscape:export-xdpi="175.74057"
       inkscape:export-ydpi="175.74057" />
    <path
       style="fill:#ff0000;fill-opacity:1;stroke-width:0.134958"
       d="m 408.31563,457.57849 c -7.61248,-0.50211 -15.71432,-2.86924 -48.6523,-14.21484 -4.56494,-1.57241 -8.57319,-2.95196 -8.90721,-3.06566 -0.33402,-0.11371 -0.64845,-0.24421 -0.69874,-0.29002 -0.092,-0.0838 0.12631,-12.71422 0.22138,-12.80929 0.051,-0.051 11.76014,3.79963 31.45018,10.34266 5.78969,1.92393 11.49841,3.74489 12.68603,4.0466 9.02769,2.29335 21.03783,3.48258 26.1404,2.58838 4.9564,-0.86857 9.39686,-3.13887 12.9351,-6.61339 0.79367,-0.77938 1.63968,-1.65998 1.88001,-1.95689 l 0.43697,-0.53983 -0.0759,2.02437 c -0.11651,3.10735 -0.68153,5.15952 -2.37811,8.6373 -1.91009,3.91547 -2.8845,5.01628 -6.39006,7.21895 -5.81675,3.65487 -11.61662,5.09542 -18.64775,4.63166 z"
       id="path178"
       transform="scale(0.26458333)"
       inkscape:export-xdpi="175.74057"
       inkscape:export-ydpi="175.74057" />
    <path
       style="fill:#d40000;fill-opacity:1;stroke-width:0.100996"
       d="m 107.6063,121.01536 c -1.45514,-0.1403 -3.62819,-0.75482 -8.747438,-2.47367 -2.721851,-0.9139 -5.232871,-1.76327 -5.580046,-1.8875 l -0.631227,-0.22586 v -1.69174 c 0,-0.93045 0.01953,-1.69173 0.04339,-1.69173 0.02387,0 2.648506,0.85932 5.832536,1.90961 3.184035,1.05029 6.243635,2.0028 6.799105,2.11669 2.45315,0.503 5.15837,0.65661 6.40175,0.36352 0.91397,-0.21545 2.11187,-0.87132 2.88454,-1.57933 l 0.66185,-0.60647 v 0.4956 c 0,0.91259 -0.65082,2.5401 -1.32097,3.30337 -0.43705,0.49777 -1.62924,1.21692 -2.61194,1.57556 -0.69305,0.25293 -2.33345,0.53915 -2.78334,0.48564 -0.0555,-0.007 -0.48225,-0.0488 -0.94821,-0.0937 z"
       id="path180"
       inkscape:export-xdpi="175.74057"
       inkscape:export-ydpi="175.74057" />
  </g>
  <g
     inkscape:groupmode="layer"
     id="layer3"
     inkscape:label="belt"
     style="display:inline;mix-blend-mode:normal">
    <path
       style="fill:none;stroke:#000000;stroke-width:0.264583px;stroke-linecap:butt;stroke-linejoin:miter;stroke-opacity:1"
       d="m 66.134955,92.033496 c 0,0 6.055734,4.920025 20.127824,5.429756 18.152781,0.657546 25.605961,-4.205535 25.605961,-4.205535 l 0.0608,5.770988 c 0,0 -7.66439,4.465585 -25.494556,4.040645 -16.734501,-0.39882 -20.337381,-3.713894 -20.337381,-3.713894 z"
       id="path44"
       sodipodi:nodetypes="csccscc"
       inkscape:export-xdpi="175.74057"
       inkscape:export-ydpi="175.74057" />
    <path
       style="fill:#ac9393;fill-opacity:1;stroke-width:0.190859"
       d="m 321.19415,388.8051 c -32.83225,-1.20232 -58.99841,-6.03856 -69.71132,-12.88461 l -1.00201,-0.64033 v -13.07622 c 0,-7.19193 0.0477,-13.07623 0.1059,-13.07623 0.0582,0 0.59504,0.33005 1.19287,0.73345 2.67001,1.80161 7.82732,4.55243 11.87052,6.33151 12.90324,5.67767 28.51994,9.60934 45.8062,11.53219 18.81011,2.09236 43.19457,1.90777 62.98353,-0.4768 18.64728,-2.247 36.22594,-6.87504 47.43047,-12.48731 l 2.32732,-1.16574 0.13863,10.1161 c 0.12882,9.40045 0.11564,10.1329 -0.1862,10.35362 -0.60925,0.44549 -5.90086,2.69113 -9.05721,3.84366 -16.76273,6.12089 -39.02385,9.88104 -64.60584,10.91263 -5.46815,0.22051 -21.08536,0.21139 -27.29286,-0.0159 z"
       id="path182"
       transform="scale(0.26458333)"
       inkscape:export-xdpi="175.74057"
       inkscape:export-ydpi="175.74057" />
  </g>
  <g
     inkscape:groupmode="layer"
     id="layer9"
     inkscape:label="belt 1"
     style="display:inline">
    <path
       style="fill:#aa8800;stroke:#000000;stroke-width:0.264583px;stroke-linecap:butt;stroke-linejoin:miter;stroke-opacity:1"
       d="m 93.82045,95.62163 c 0.803227,-0.537389 8.29563,-1.310968 9.46063,-0.917318 1.35048,1.376754 0.84775,7.314988 0.35154,8.304148 -1.65426,1.3782 -8.666949,2.14752 -9.481618,1.39726 -0.411821,-0.88009 -0.828335,-7.971664 -0.330552,-8.78409 z"
       id="path216"
       sodipodi:nodetypes="ccccc"
       inkscape:export-xdpi="175.74057"
       inkscape:export-ydpi="175.74057" />
    <path
       style="fill:#ffdd55;stroke:#000000;stroke-width:0.277079px;stroke-linecap:butt;stroke-linejoin:miter;stroke-opacity:1"
       d="m 95.042136,96.078272 c -0.315273,0.501265 -0.545651,7.456158 0.09773,7.870318 3.97593,0.56869 8.492754,-0.94013 8.492754,-0.94013 0.31245,-2.09437 0.7836,-5.909551 -0.0706,-7.818075 -1.84069,-0.852099 -7.753256,0.359227 -8.519877,0.887887 z"
       id="path218"
       sodipodi:nodetypes="ccccc"
       inkscape:export-xdpi="175.74057"
       inkscape:export-ydpi="175.74057" />
  </g>
  <g
     inkscape:groupmode="layer"
     id="layer5"
     inkscape:label="back_lace"
     style="display:inline">
    <path
       style="fill:#ac9393;fill-opacity:1;stroke:#000000;stroke-width:0.283009px;stroke-linecap:butt;stroke-linejoin:miter;stroke-opacity:1"
       d="m 67.500342,73.4679 c 0,0 12.752912,2.339223 12.343733,16.800715 -0.354866,12.541945 -12.171059,8.99514 -13.947545,8.918575 l 0.238425,-7.153694 c 0,0 9.914717,6.529279 10.985997,-3.847335 0.836096,-8.09858 -9.98685,-12.140984 -9.98685,-12.140984 z"
       id="path50"
       sodipodi:nodetypes="csccscc"
       inkscape:export-xdpi="175.74057"
       inkscape:export-ydpi="175.74057" />
  </g>
  <g
     inkscape:groupmode="layer"
     id="layer8"
     inkscape:label="arm"
     style="display:inline;mix-blend-mode:normal">
    <path
       style="fill:#d40000;fill-opacity:1;stroke:#000000;stroke-width:0.235726px;stroke-linecap:butt;stroke-linejoin:miter;stroke-opacity:1"
       d="m 69.249869,81.348521 c 0,0 1.86354,-2.273505 5.080131,0.615294 2.139019,1.921039 1.519694,6.08238 1.384406,7.568863 -2.472063,4.54608 -2.033437,3.482799 -3.828929,7.159299 0,0 1.923735,2.117281 0.660187,2.697146 -1.5068,0.691497 -1.622802,-0.684137 -1.622802,-0.684137 0,0 -0.702482,3.770804 -3.360469,4.368384 -2.657984,0.59759 -6.236521,-2.12219 -7.116554,-4.046516 -1.808165,-3.95383 1.421509,-6.465636 1.999468,-7.486164 2.020023,-3.566838 6.804562,-10.192169 6.804562,-10.192169 z"
       id="path191"
       sodipodi:nodetypes="csccscsssc"
       inkscape:export-xdpi="175.74057"
       inkscape:export-ydpi="175.74057" />
    <path
       style="fill:#000000;fill-opacity:0;stroke-width:0.190859"
       d="m 251.3387,383.64003 c -4.22493,-1.15472 -9.10307,-4.00679 -12.61056,-7.37292 -2.50604,-2.40505 -3.51914,-4.36345 -3.93451,-7.60576 -0.272,-2.12323 0.0464,-4.48992 0.95757,-7.11665 0.91856,-2.64815 1.43371,-3.58347 5.15298,-9.35577 2.71369,-4.21166 5.69796,-8.28305 18.52037,-25.26701 8.40698,-11.13549 15.39409,-20.36124 15.52691,-20.50167 0.20064,-0.21212 0.42939,-0.13258 1.35198,0.47013 4.29138,2.80345 6.76807,5.59892 8.17038,9.22202 1.70947,4.41668 2.19144,10.65888 1.46994,19.03772 l -0.2545,2.95557 -1.65719,3.03477 c -0.91146,1.66912 -2.96863,5.37798 -4.57151,8.24192 -2.86772,5.12391 -5.02837,9.22743 -7.27097,13.80912 l -1.13767,2.32429 0.7427,0.91596 c 1.80292,2.22352 3.10887,4.50409 3.34319,5.83818 0.1142,0.65018 0.0947,0.67735 -0.63736,0.88748 -0.98356,0.28231 -2.17984,0.26237 -2.56859,-0.0428 -0.16965,-0.13319 -0.67595,-0.88665 -1.12512,-1.67436 -0.81336,-1.4264 -1.21692,-1.77955 -3.77959,-3.30745 -0.29087,-0.17342 -0.52413,0.19016 -1.9168,2.98771 -0.8721,1.75183 -1.96409,4.01216 -2.42665,5.02293 -1.65664,3.62007 -3.77502,6.17069 -6.00405,7.22917 -1.47843,0.70206 -3.39893,0.79822 -5.34095,0.26745 z"
       id="path195"
       transform="scale(0.26458333)"
       inkscape:export-xdpi="175.74057"
       inkscape:export-ydpi="175.74057" />
    <path
       style="fill:#000000;fill-opacity:0;stroke-width:0.190859"
       d="m 251.3387,383.64003 c -4.22493,-1.15472 -9.10307,-4.00679 -12.61056,-7.37292 -2.50604,-2.40505 -3.51914,-4.36345 -3.93451,-7.60576 -0.272,-2.12323 0.0464,-4.48992 0.95757,-7.11665 0.91856,-2.64815 1.43371,-3.58347 5.15298,-9.35577 2.71369,-4.21166 5.69796,-8.28305 18.52037,-25.26701 8.40698,-11.13549 15.39409,-20.36124 15.52691,-20.50167 0.20064,-0.21212 0.42939,-0.13258 1.35198,0.47013 4.29138,2.80345 6.76807,5.59892 8.17038,9.22202 1.70947,4.41668 2.19144,10.65888 1.46994,19.03772 l -0.2545,2.95557 -1.65719,3.03477 c -0.91146,1.66912 -2.96863,5.37798 -4.57151,8.24192 -2.86772,5.12391 -5.02837,9.22743 -7.27097,13.80912 l -1.13767,2.32429 0.7427,0.91596 c 1.80292,2.22352 3.10887,4.50409 3.34319,5.83818 0.1142,0.65018 0.0947,0.67735 -0.63736,0.88748 -0.98356,0.28231 -2.17984,0.26237 -2.56859,-0.0428 -0.16965,-0.13319 -0.67595,-0.88665 -1.12512,-1.67436 -0.81336,-1.4264 -1.21692,-1.77955 -3.77959,-3.30745 -0.29087,-0.17342 -0.52413,0.19016 -1.9168,2.98771 -0.8721,1.75183 -1.96409,4.01216 -2.42665,5.02293 -1.65664,3.62007 -3.77502,6.17069 -6.00405,7.22917 -1.47843,0.70206 -3.39893,0.79822 -5.34095,0.26745 z"
       id="path197"
       transform="scale(0.26458333)"
       inkscape:export-xdpi="175.74057"
       inkscape:export-ydpi="175.74057" />
    <path
       style="fill:#000000;fill-opacity:0;stroke-width:0.190859"
       d="m 251.3387,383.64003 c -4.22493,-1.15472 -9.10307,-4.00679 -12.61056,-7.37292 -2.50604,-2.40505 -3.51914,-4.36345 -3.93451,-7.60576 -0.272,-2.12323 0.0464,-4.48992 0.95757,-7.11665 0.91856,-2.64815 1.43371,-3.58347 5.15298,-9.35577 2.71369,-4.21166 5.69796,-8.28305 18.52037,-25.26701 8.40698,-11.13549 15.39409,-20.36124 15.52691,-20.50167 0.20064,-0.21212 0.42939,-0.13258 1.35198,0.47013 4.29138,2.80345 6.76807,5.59892 8.17038,9.22202 1.70947,4.41668 2.19144,10.65888 1.46994,19.03772 l -0.2545,2.95557 -1.65719,3.03477 c -0.91146,1.66912 -2.96863,5.37798 -4.57151,8.24192 -2.86772,5.12391 -5.02837,9.22743 -7.27097,13.80912 l -1.13767,2.32429 0.7427,0.91596 c 1.80292,2.22352 3.10887,4.50409 3.34319,5.83818 0.1142,0.65018 0.0947,0.67735 -0.63736,0.88748 -0.98356,0.28231 -2.17984,0.26237 -2.56859,-0.0428 -0.16965,-0.13319 -0.67595,-0.88665 -1.12512,-1.67436 -0.81336,-1.4264 -1.21692,-1.77955 -3.77959,-3.30745 -0.29087,-0.17342 -0.52413,0.19016 -1.9168,2.98771 -0.8721,1.75183 -1.96409,4.01216 -2.42665,5.02293 -1.65664,3.62007 -3.77502,6.17069 -6.00405,7.22917 -1.47843,0.70206 -3.39893,0.79822 -5.34095,0.26745 z"
       id="path199"
       transform="scale(0.26458333)"
       inkscape:export-xdpi="175.74057"
       inkscape:export-ydpi="175.74057" />
    <path
       style="fill:#000000;fill-opacity:0;stroke-width:0.190859"
       d="m 248.79608,388.93391 c -4.81805,-1.10651 -10.14067,-4.0415 -14.22811,-7.84562 -3.09568,-2.88111 -4.80034,-5.1429 -5.95607,-7.90268 -1.29287,-3.08727 -1.53427,-4.40644 -1.47888,-8.08138 0.0448,-2.96934 0.0948,-3.3893 0.59021,-4.95584 1.09696,-3.46852 2.89786,-6.45436 6.88161,-11.4095 1.38937,-1.72816 2.33315,-3.25899 5.14099,-8.33885 3.47505,-6.28696 11.20096,-20.54097 16.8896,-31.16069 l 3.09636,-5.78037 0.85131,-0.24189 c 1.31482,-0.37359 4.48183,-0.46065 6.30455,-0.17331 1.76407,0.27809 4.42029,1.12338 6.12326,1.9486 l 1.09575,0.53098 -15.6572,20.72229 c -13.51603,17.88846 -16.08666,21.39555 -18.79763,25.64553 -1.72724,2.70779 -3.40243,5.43558 -3.72265,6.06175 -1.36621,2.67156 -2.40809,6.53512 -2.43353,9.02416 -0.0272,2.66462 0.77625,5.50561 2.13278,7.54116 2.39898,3.59979 8.49245,7.90861 13.79652,9.75582 5.20776,1.81366 8.58364,0.88338 11.76852,-3.24301 0.62746,-0.81294 1.44612,-2.09999 1.81926,-2.86011 0.37313,-0.76013 1.45164,-2.9621 2.39667,-4.89329 0.94504,-1.93118 1.7342,-3.53582 1.7537,-3.56588 0.0195,-0.03 0.47172,0.22361 1.00492,0.56368 0.76838,0.49008 1.14897,0.93282 1.83496,2.1346 1.0939,1.91641 1.5079,2.16265 3.46322,2.05988 l 1.43398,-0.0754 -0.5217,0.43834 c -0.57255,0.48107 -2.18183,1.00467 -3.05673,0.99454 -1.09361,-0.0127 -1.81755,-0.55593 -2.36363,-1.77372 -0.43603,-0.97237 -0.57365,-1.1256 -0.97463,-1.08512 -0.39464,0.0398 -0.50862,0.20914 -0.73644,1.09382 -1.97595,7.67325 -6.22173,13.23066 -11.29222,14.78067 -1.83376,0.56056 -4.94166,0.59999 -7.15875,0.0908 z"
       id="path201"
       transform="scale(0.26458333)"
       inkscape:export-xdpi="175.74057"
       inkscape:export-ydpi="175.74057" />
    <path
       style="fill:#000000;fill-opacity:0;stroke-width:0.190859"
       d="m 251.3387,383.64003 c -4.22493,-1.15472 -9.10307,-4.00679 -12.61056,-7.37292 -2.50604,-2.40505 -3.51914,-4.36345 -3.93451,-7.60576 -0.272,-2.12323 0.0464,-4.48992 0.95757,-7.11665 0.91856,-2.64815 1.43371,-3.58347 5.15298,-9.35577 2.71369,-4.21166 5.69796,-8.28305 18.52037,-25.26701 8.40698,-11.13549 15.39409,-20.36124 15.52691,-20.50167 0.20064,-0.21212 0.42939,-0.13258 1.35198,0.47013 4.29138,2.80345 6.76807,5.59892 8.17038,9.22202 1.70947,4.41668 2.19144,10.65888 1.46994,19.03772 l -0.2545,2.95557 -1.65719,3.03477 c -0.91146,1.66912 -2.96863,5.37798 -4.57151,8.24192 -2.86772,5.12391 -5.02837,9.22743 -7.27097,13.80912 l -1.13767,2.32429 0.7427,0.91596 c 1.80292,2.22352 3.10887,4.50409 3.34319,5.83818 0.1142,0.65018 0.0947,0.67735 -0.63736,0.88748 -0.98356,0.28231 -2.17984,0.26237 -2.56859,-0.0428 -0.16965,-0.13319 -0.67595,-0.88665 -1.12512,-1.67436 -0.81336,-1.4264 -1.21692,-1.77955 -3.77959,-3.30745 -0.29087,-0.17342 -0.52413,0.19016 -1.9168,2.98771 -0.8721,1.75183 -1.96409,4.01216 -2.42665,5.02293 -1.65664,3.62007 -3.77502,6.17069 -6.00405,7.22917 -1.47843,0.70206 -3.39893,0.79822 -5.34095,0.26745 z"
       id="path203"
       transform="scale(0.26458333)"
       inkscape:export-xdpi="175.74057"
       inkscape:export-ydpi="175.74057" />
    <path
       style="fill:#000000;fill-opacity:0;stroke-width:0.190859"
       d="m 251.3387,383.64003 c -4.22493,-1.15472 -9.10307,-4.00679 -12.61056,-7.37292 -2.50604,-2.40505 -3.51914,-4.36345 -3.93451,-7.60576 -0.272,-2.12323 0.0464,-4.48992 0.95757,-7.11665 0.91856,-2.64815 1.43371,-3.58347 5.15298,-9.35577 2.71369,-4.21166 5.69796,-8.28305 18.52037,-25.26701 8.40698,-11.13549 15.39409,-20.36124 15.52691,-20.50167 0.20064,-0.21212 0.42939,-0.13258 1.35198,0.47013 4.29138,2.80345 6.76807,5.59892 8.17038,9.22202 1.70947,4.41668 2.19144,10.65888 1.46994,19.03772 l -0.2545,2.95557 -1.65719,3.03477 c -0.91146,1.66912 -2.96863,5.37798 -4.57151,8.24192 -2.86772,5.12391 -5.02837,9.22743 -7.27097,13.80912 l -1.13767,2.32429 0.7427,0.91596 c 1.80292,2.22352 3.10887,4.50409 3.34319,5.83818 0.1142,0.65018 0.0947,0.67735 -0.63736,0.88748 -0.98356,0.28231 -2.17984,0.26237 -2.56859,-0.0428 -0.16965,-0.13319 -0.67595,-0.88665 -1.12512,-1.67436 -0.81336,-1.4264 -1.21692,-1.77955 -3.77959,-3.30745 -0.29087,-0.17342 -0.52413,0.19016 -1.9168,2.98771 -0.8721,1.75183 -1.96409,4.01216 -2.42665,5.02293 -1.65664,3.62007 -3.77502,6.17069 -6.00405,7.22917 -1.47843,0.70206 -3.39893,0.79822 -5.34095,0.26745 z"
       id="path205"
       transform="scale(0.26458333)"
       inkscape:export-xdpi="175.74057"
       inkscape:export-ydpi="175.74057" />
    <path
       style="fill:#000000;fill-opacity:0;stroke-width:0.190859"
       d="m 251.3387,383.64003 c -4.22493,-1.15472 -9.10307,-4.00679 -12.61056,-7.37292 -2.50604,-2.40505 -3.51914,-4.36345 -3.93451,-7.60576 -0.272,-2.12323 0.0464,-4.48992 0.95757,-7.11665 0.91856,-2.64815 1.43371,-3.58347 5.15298,-9.35577 2.71369,-4.21166 5.69796,-8.28305 18.52037,-25.26701 8.40698,-11.13549 15.39409,-20.36124 15.52691,-20.50167 0.20064,-0.21212 0.42939,-0.13258 1.35198,0.47013 4.29138,2.80345 6.76807,5.59892 8.17038,9.22202 1.70947,4.41668 2.19144,10.65888 1.46994,19.03772 l -0.2545,2.95557 -1.65719,3.03477 c -0.91146,1.66912 -2.96863,5.37798 -4.57151,8.24192 -2.86772,5.12391 -5.02837,9.22743 -7.27097,13.80912 l -1.13767,2.32429 0.7427,0.91596 c 1.80292,2.22352 3.10887,4.50409 3.34319,5.83818 0.1142,0.65018 0.0947,0.67735 -0.63736,0.88748 -0.98356,0.28231 -2.17984,0.26237 -2.56859,-0.0428 -0.16965,-0.13319 -0.67595,-0.88665 -1.12512,-1.67436 -0.81336,-1.4264 -1.21692,-1.77955 -3.77959,-3.30745 -0.29087,-0.17342 -0.52413,0.19016 -1.9168,2.98771 -0.8721,1.75183 -1.96409,4.01216 -2.42665,5.02293 -1.65664,3.62007 -3.77502,6.17069 -6.00405,7.22917 -1.47843,0.70206 -3.39893,0.79822 -5.34095,0.26745 z"
       id="path207"
       transform="scale(0.26458333)"
       inkscape:export-xdpi="175.74057"
       inkscape:export-ydpi="175.74057" />
    <path
       style="fill:#000000;fill-opacity:0;stroke-width:0.190859"
       d="m 251.3387,383.64003 c -4.22493,-1.15472 -9.10307,-4.00679 -12.61056,-7.37292 -2.50604,-2.40505 -3.51914,-4.36345 -3.93451,-7.60576 -0.272,-2.12323 0.0464,-4.48992 0.95757,-7.11665 0.91856,-2.64815 1.43371,-3.58347 5.15298,-9.35577 2.71369,-4.21166 5.69796,-8.28305 18.52037,-25.26701 8.40698,-11.13549 15.39409,-20.36124 15.52691,-20.50167 0.20064,-0.21212 0.42939,-0.13258 1.35198,0.47013 4.29138,2.80345 6.76807,5.59892 8.17038,9.22202 1.70947,4.41668 2.19144,10.65888 1.46994,19.03772 l -0.2545,2.95557 -1.65719,3.03477 c -0.91146,1.66912 -2.96863,5.37798 -4.57151,8.24192 -2.86772,5.12391 -5.02837,9.22743 -7.27097,13.80912 l -1.13767,2.32429 0.7427,0.91596 c 1.80292,2.22352 3.10887,4.50409 3.34319,5.83818 0.1142,0.65018 0.0947,0.67735 -0.63736,0.88748 -0.98356,0.28231 -2.17984,0.26237 -2.56859,-0.0428 -0.16965,-0.13319 -0.67595,-0.88665 -1.12512,-1.67436 -0.81336,-1.4264 -1.21692,-1.77955 -3.77959,-3.30745 -0.29087,-0.17342 -0.52413,0.19016 -1.9168,2.98771 -0.8721,1.75183 -1.96409,4.01216 -2.42665,5.02293 -1.65664,3.62007 -3.77502,6.17069 -6.00405,7.22917 -1.47843,0.70206 -3.39893,0.79822 -5.34095,0.26745 z"
       id="path209"
       transform="scale(0.26458333)"
       inkscape:export-xdpi="175.74057"
       inkscape:export-ydpi="175.74057" />
    <path
       style="fill:#000000;fill-opacity:0;stroke-width:0.190859"
       d="m 251.3387,383.64003 c -4.22493,-1.15472 -9.10307,-4.00679 -12.61056,-7.37292 -2.50604,-2.40505 -3.51914,-4.36345 -3.93451,-7.60576 -0.272,-2.12323 0.0464,-4.48992 0.95757,-7.11665 0.91856,-2.64815 1.43371,-3.58347 5.15298,-9.35577 2.71369,-4.21166 5.69796,-8.28305 18.52037,-25.26701 8.40698,-11.13549 15.39409,-20.36124 15.52691,-20.50167 0.20064,-0.21212 0.42939,-0.13258 1.35198,0.47013 4.29138,2.80345 6.76807,5.59892 8.17038,9.22202 1.70947,4.41668 2.19144,10.65888 1.46994,19.03772 l -0.2545,2.95557 -1.65719,3.03477 c -0.91146,1.66912 -2.96863,5.37798 -4.57151,8.24192 -2.86772,5.12391 -5.02837,9.22743 -7.27097,13.80912 l -1.13767,2.32429 0.7427,0.91596 c 1.80292,2.22352 3.10887,4.50409 3.34319,5.83818 0.1142,0.65018 0.0947,0.67735 -0.63736,0.88748 -0.98356,0.28231 -2.17984,0.26237 -2.56859,-0.0428 -0.16965,-0.13319 -0.67595,-0.88665 -1.12512,-1.67436 -0.81336,-1.4264 -1.21692,-1.77955 -3.77959,-3.30745 -0.29087,-0.17342 -0.52413,0.19016 -1.9168,2.98771 -0.8721,1.75183 -1.96409,4.01216 -2.42665,5.02293 -1.65664,3.62007 -3.77502,6.17069 -6.00405,7.22917 -1.47843,0.70206 -3.39893,0.79822 -5.34095,0.26745 z"
       id="path211"
       transform="scale(0.26458333)"
       inkscape:export-xdpi="175.74057"
       inkscape:export-ydpi="175.74057" />
    <path
       style="fill:#ff0000;fill-opacity:1;stroke-width:0.0504981"
       d="m 66.500031,101.50476 c -1.117847,-0.30552 -2.408521,-1.06013 -3.336544,-1.950755 -0.663057,-0.636336 -0.931106,-1.154496 -1.041006,-2.012357 -0.07197,-0.561772 0.01228,-1.187958 0.253357,-1.882947 0.243036,-0.700657 0.379336,-0.948127 1.363392,-2.475381 0.717998,-1.114335 1.507586,-2.191557 4.900182,-6.68523 2.224346,-2.946265 4.073019,-5.387244 4.108161,-5.4244 0.05309,-0.05612 0.11361,-0.03508 0.357712,0.124389 1.135427,0.741746 1.790718,1.481381 2.161746,2.439992 0.452297,1.16858 0.579818,2.820162 0.388922,5.037064 l -0.06734,0.781994 -0.438465,0.80295 c -0.241157,0.441621 -0.78545,1.422924 -1.209545,2.180675 -0.758751,1.355701 -1.330423,2.441424 -1.923778,3.653662 l -0.301008,0.614969 0.196506,0.242348 c 0.477023,0.588306 0.822555,1.191707 0.884552,1.544685 0.03022,0.172027 0.02506,0.179215 -0.168635,0.234812 -0.260233,0.0747 -0.576749,0.06942 -0.679606,-0.01132 -0.04489,-0.03524 -0.178845,-0.234593 -0.297688,-0.443008 -0.215201,-0.377401 -0.321976,-0.470839 -1.000016,-0.875096 -0.07696,-0.04588 -0.138676,0.05031 -0.507153,0.790498 -0.230744,0.463505 -0.519666,1.061551 -0.642052,1.328984 -0.438319,0.957802 -0.998807,1.632662 -1.588571,1.912712 -0.391168,0.18576 -0.8993,0.2112 -1.413126,0.0708 z"
       id="path213"
       inkscape:export-xdpi="175.74057"
       inkscape:export-ydpi="175.74057" />
    <path
       style="display:inline;mix-blend-mode:normal;fill:#000000;fill-opacity:0;stroke-width:0.0504981"
       d="m 116.41185,87.055285 c -1.11785,-0.30552 -2.40852,-1.06013 -3.33655,-1.950752 -0.66305,-0.636336 -0.9311,-1.154496 -1.041,-2.012357 -0.072,-0.561771 0.0123,-1.187958 0.25335,-1.882947 0.24304,-0.700656 0.37934,-0.948127 1.3634,-2.475381 0.71799,-1.114335 1.50758,-2.191557 4.90018,-6.685229 2.22434,-2.946265 4.07302,-5.387245 4.10816,-5.4244 0.0531,-0.05612 0.11361,-0.03508 0.35771,0.124388 1.13543,0.741746 1.79072,1.481381 2.16175,2.439993 0.45229,1.16858 0.57982,2.820162 0.38892,5.037063 l -0.0673,0.781995 -0.43847,0.802949 c -0.24115,0.441621 -0.78545,1.422924 -1.20954,2.180675 -0.75875,1.355701 -1.33042,2.441424 -1.92378,3.653663 l -0.30101,0.614968 0.19651,0.242348 c 0.47702,0.588306 0.82255,1.191707 0.88455,1.544685 0.0302,0.172027 0.0251,0.179216 -0.16863,0.234812 -0.26024,0.07469 -0.57675,0.06942 -0.67961,-0.01132 -0.0449,-0.03524 -0.17885,-0.234593 -0.29769,-0.443007 -0.2152,-0.377402 -0.32198,-0.47084 -1.00001,-0.875097 -0.077,-0.04588 -0.13868,0.05031 -0.50716,0.790499 -0.23074,0.463505 -0.51966,1.06155 -0.64205,1.328983 -0.43832,0.95781 -0.99881,1.632662 -1.58857,1.912718 -0.39117,0.185753 -0.8993,0.211196 -1.41313,0.07076 z"
       id="path195-6"
       inkscape:export-xdpi="175.74057"
       inkscape:export-ydpi="175.74057" />
    <path
       style="display:inline;mix-blend-mode:normal;fill:#000000;fill-opacity:0;stroke-width:0.0504981"
       d="m 116.41185,87.055285 c -1.11785,-0.30552 -2.40852,-1.06013 -3.33655,-1.950752 -0.66305,-0.636336 -0.9311,-1.154496 -1.041,-2.012357 -0.072,-0.561771 0.0123,-1.187958 0.25335,-1.882947 0.24304,-0.700656 0.37934,-0.948127 1.3634,-2.475381 0.71799,-1.114335 1.50758,-2.191557 4.90018,-6.685229 2.22434,-2.946265 4.07302,-5.387245 4.10816,-5.4244 0.0531,-0.05612 0.11361,-0.03508 0.35771,0.124388 1.13543,0.741746 1.79072,1.481381 2.16175,2.439993 0.45229,1.16858 0.57982,2.820162 0.38892,5.037063 l -0.0673,0.781995 -0.43847,0.802949 c -0.24115,0.441621 -0.78545,1.422924 -1.20954,2.180675 -0.75875,1.355701 -1.33042,2.441424 -1.92378,3.653663 l -0.30101,0.614968 0.19651,0.242348 c 0.47702,0.588306 0.82255,1.191707 0.88455,1.544685 0.0302,0.172027 0.0251,0.179216 -0.16863,0.234812 -0.26024,0.07469 -0.57675,0.06942 -0.67961,-0.01132 -0.0449,-0.03524 -0.17885,-0.234593 -0.29769,-0.443007 -0.2152,-0.377402 -0.32198,-0.47084 -1.00001,-0.875097 -0.077,-0.04588 -0.13868,0.05031 -0.50716,0.790499 -0.23074,0.463505 -0.51966,1.06155 -0.64205,1.328983 -0.43832,0.95781 -0.99881,1.632662 -1.58857,1.912718 -0.39117,0.185753 -0.8993,0.211196 -1.41313,0.07076 z"
       id="path197-9"
       inkscape:export-xdpi="175.74057"
       inkscape:export-ydpi="175.74057" />
    <path
       style="display:inline;mix-blend-mode:normal;fill:#000000;fill-opacity:0;stroke-width:0.0504981"
       d="m 116.41185,87.055285 c -1.11785,-0.30552 -2.40852,-1.06013 -3.33655,-1.950752 -0.66305,-0.636336 -0.9311,-1.154496 -1.041,-2.012357 -0.072,-0.561771 0.0123,-1.187958 0.25335,-1.882947 0.24304,-0.700656 0.37934,-0.948127 1.3634,-2.475381 0.71799,-1.114335 1.50758,-2.191557 4.90018,-6.685229 2.22434,-2.946265 4.07302,-5.387245 4.10816,-5.4244 0.0531,-0.05612 0.11361,-0.03508 0.35771,0.124388 1.13543,0.741746 1.79072,1.481381 2.16175,2.439993 0.45229,1.16858 0.57982,2.820162 0.38892,5.037063 l -0.0673,0.781995 -0.43847,0.802949 c -0.24115,0.441621 -0.78545,1.422924 -1.20954,2.180675 -0.75875,1.355701 -1.33042,2.441424 -1.92378,3.653663 l -0.30101,0.614968 0.19651,0.242348 c 0.47702,0.588306 0.82255,1.191707 0.88455,1.544685 0.0302,0.172027 0.0251,0.179216 -0.16863,0.234812 -0.26024,0.07469 -0.57675,0.06942 -0.67961,-0.01132 -0.0449,-0.03524 -0.17885,-0.234593 -0.29769,-0.443007 -0.2152,-0.377402 -0.32198,-0.47084 -1.00001,-0.875097 -0.077,-0.04588 -0.13868,0.05031 -0.50716,0.790499 -0.23074,0.463505 -0.51966,1.06155 -0.64205,1.328983 -0.43832,0.95781 -0.99881,1.632662 -1.58857,1.912718 -0.39117,0.185753 -0.8993,0.211196 -1.41313,0.07076 z"
       id="path199-0"
       inkscape:export-xdpi="175.74057"
       inkscape:export-ydpi="175.74057" />
    <path
       style="display:inline;mix-blend-mode:normal;fill:#000000;fill-opacity:0;stroke-width:0.0504981"
       d="m 115.73911,88.455957 c -1.27477,-0.292764 -2.68305,-1.069313 -3.76452,-2.07582 -0.81906,-0.762294 -1.27009,-1.360726 -1.57588,-2.090917 -0.34207,-0.81684 -0.40594,-1.165871 -0.39128,-2.138199 0.0118,-0.785638 0.0251,-0.896752 0.15616,-1.311232 0.29023,-0.917713 0.76672,-1.707717 1.82076,-3.018764 0.3676,-0.457242 0.61731,-0.862274 1.36022,-2.20632 0.91944,-1.663425 2.96358,-5.434799 4.4687,-8.244599 l 0.81925,-1.52939 0.22524,-0.064 c 0.34788,-0.09885 1.18582,-0.12188 1.66808,-0.04585 0.46674,0.07358 1.16953,0.297228 1.62011,0.515567 l 0.28992,0.140489 -4.14263,5.482772 c -3.57612,4.732988 -4.25627,5.660906 -4.97354,6.785379 -0.457,0.716437 -0.90023,1.438164 -0.98496,1.603838 -0.36147,0.706851 -0.63714,1.729084 -0.64387,2.387643 -0.007,0.705014 0.20539,1.456692 0.5643,1.995265 0.63473,0.952444 2.24696,2.092486 3.65033,2.581227 1.37789,0.479865 2.27109,0.233728 3.11375,-0.858046 0.16602,-0.21509 0.38262,-0.555622 0.48135,-0.756737 0.0987,-0.201118 0.38408,-0.783723 0.63412,-1.294683 0.25004,-0.510958 0.45884,-0.935519 0.464,-0.943473 0.005,-0.0079 0.12481,0.05916 0.26588,0.149141 0.2033,0.129667 0.304,0.246808 0.4855,0.564779 0.28943,0.50705 0.39897,0.572201 0.91631,0.54501 l 0.37941,-0.01995 -0.13803,0.115978 c -0.15149,0.127283 -0.57728,0.265819 -0.80876,0.263139 -0.28935,-0.0034 -0.48089,-0.14709 -0.62538,-0.469297 -0.11536,-0.257273 -0.15178,-0.297815 -0.25787,-0.287105 -0.10441,0.01053 -0.13457,0.05533 -0.19485,0.289407 -0.5228,2.030214 -1.64617,3.500612 -2.98773,3.910719 -0.48518,0.148314 -1.30748,0.158747 -1.89409,0.02402 z"
       id="path201-4"
       inkscape:export-xdpi="175.74057"
       inkscape:export-ydpi="175.74057" />
    <path
       style="display:inline;mix-blend-mode:normal;fill:#000000;fill-opacity:0;stroke-width:0.0504981"
       d="m 116.41185,87.055285 c -1.11785,-0.30552 -2.40852,-1.06013 -3.33655,-1.950752 -0.66305,-0.636336 -0.9311,-1.154496 -1.041,-2.012357 -0.072,-0.561771 0.0123,-1.187958 0.25335,-1.882947 0.24304,-0.700656 0.37934,-0.948127 1.3634,-2.475381 0.71799,-1.114335 1.50758,-2.191557 4.90018,-6.685229 2.22434,-2.946265 4.07302,-5.387245 4.10816,-5.4244 0.0531,-0.05612 0.11361,-0.03508 0.35771,0.124388 1.13543,0.741746 1.79072,1.481381 2.16175,2.439993 0.45229,1.16858 0.57982,2.820162 0.38892,5.037063 l -0.0673,0.781995 -0.43847,0.802949 c -0.24115,0.441621 -0.78545,1.422924 -1.20954,2.180675 -0.75875,1.355701 -1.33042,2.441424 -1.92378,3.653663 l -0.30101,0.614968 0.19651,0.242348 c 0.47702,0.588306 0.82255,1.191707 0.88455,1.544685 0.0302,0.172027 0.0251,0.179216 -0.16863,0.234812 -0.26024,0.07469 -0.57675,0.06942 -0.67961,-0.01132 -0.0449,-0.03524 -0.17885,-0.234593 -0.29769,-0.443007 -0.2152,-0.377402 -0.32198,-0.47084 -1.00001,-0.875097 -0.077,-0.04588 -0.13868,0.05031 -0.50716,0.790499 -0.23074,0.463505 -0.51966,1.06155 -0.64205,1.328983 -0.43832,0.95781 -0.99881,1.632662 -1.58857,1.912718 -0.39117,0.185753 -0.8993,0.211196 -1.41313,0.07076 z"
       id="path203-6"
       inkscape:export-xdpi="175.74057"
       inkscape:export-ydpi="175.74057" />
    <path
       style="display:inline;mix-blend-mode:normal;fill:#000000;fill-opacity:0;stroke-width:0.0504981"
       d="m 116.41185,87.055285 c -1.11785,-0.30552 -2.40852,-1.06013 -3.33655,-1.950752 -0.66305,-0.636336 -0.9311,-1.154496 -1.041,-2.012357 -0.072,-0.561771 0.0123,-1.187958 0.25335,-1.882947 0.24304,-0.700656 0.37934,-0.948127 1.3634,-2.475381 0.71799,-1.114335 1.50758,-2.191557 4.90018,-6.685229 2.22434,-2.946265 4.07302,-5.387245 4.10816,-5.4244 0.0531,-0.05612 0.11361,-0.03508 0.35771,0.124388 1.13543,0.741746 1.79072,1.481381 2.16175,2.439993 0.45229,1.16858 0.57982,2.820162 0.38892,5.037063 l -0.0673,0.781995 -0.43847,0.802949 c -0.24115,0.441621 -0.78545,1.422924 -1.20954,2.180675 -0.75875,1.355701 -1.33042,2.441424 -1.92378,3.653663 l -0.30101,0.614968 0.19651,0.242348 c 0.47702,0.588306 0.82255,1.191707 0.88455,1.544685 0.0302,0.172027 0.0251,0.179216 -0.16863,0.234812 -0.26024,0.07469 -0.57675,0.06942 -0.67961,-0.01132 -0.0449,-0.03524 -0.17885,-0.234593 -0.29769,-0.443007 -0.2152,-0.377402 -0.32198,-0.47084 -1.00001,-0.875097 -0.077,-0.04588 -0.13868,0.05031 -0.50716,0.790499 -0.23074,0.463505 -0.51966,1.06155 -0.64205,1.328983 -0.43832,0.95781 -0.99881,1.632662 -1.58857,1.912718 -0.39117,0.185753 -0.8993,0.211196 -1.41313,0.07076 z"
       id="path205-1"
       inkscape:export-xdpi="175.74057"
       inkscape:export-ydpi="175.74057" />
    <path
       style="display:inline;mix-blend-mode:normal;fill:#000000;fill-opacity:0;stroke-width:0.0504981"
       d="m 116.41185,87.055285 c -1.11785,-0.30552 -2.40852,-1.06013 -3.33655,-1.950752 -0.66305,-0.636336 -0.9311,-1.154496 -1.041,-2.012357 -0.072,-0.561771 0.0123,-1.187958 0.25335,-1.882947 0.24304,-0.700656 0.37934,-0.948127 1.3634,-2.475381 0.71799,-1.114335 1.50758,-2.191557 4.90018,-6.685229 2.22434,-2.946265 4.07302,-5.387245 4.10816,-5.4244 0.0531,-0.05612 0.11361,-0.03508 0.35771,0.124388 1.13543,0.741746 1.79072,1.481381 2.16175,2.439993 0.45229,1.16858 0.57982,2.820162 0.38892,5.037063 l -0.0673,0.781995 -0.43847,0.802949 c -0.24115,0.441621 -0.78545,1.422924 -1.20954,2.180675 -0.75875,1.355701 -1.33042,2.441424 -1.92378,3.653663 l -0.30101,0.614968 0.19651,0.242348 c 0.47702,0.588306 0.82255,1.191707 0.88455,1.544685 0.0302,0.172027 0.0251,0.179216 -0.16863,0.234812 -0.26024,0.07469 -0.57675,0.06942 -0.67961,-0.01132 -0.0449,-0.03524 -0.17885,-0.234593 -0.29769,-0.443007 -0.2152,-0.377402 -0.32198,-0.47084 -1.00001,-0.875097 -0.077,-0.04588 -0.13868,0.05031 -0.50716,0.790499 -0.23074,0.463505 -0.51966,1.06155 -0.64205,1.328983 -0.43832,0.95781 -0.99881,1.632662 -1.58857,1.912718 -0.39117,0.185753 -0.8993,0.211196 -1.41313,0.07076 z"
       id="path207-6"
       inkscape:export-xdpi="175.74057"
       inkscape:export-ydpi="175.74057" />
    <path
       style="display:inline;mix-blend-mode:normal;fill:#000000;fill-opacity:0;stroke-width:0.0504981"
       d="m 116.41185,87.055285 c -1.11785,-0.30552 -2.40852,-1.06013 -3.33655,-1.950752 -0.66305,-0.636336 -0.9311,-1.154496 -1.041,-2.012357 -0.072,-0.561771 0.0123,-1.187958 0.25335,-1.882947 0.24304,-0.700656 0.37934,-0.948127 1.3634,-2.475381 0.71799,-1.114335 1.50758,-2.191557 4.90018,-6.685229 2.22434,-2.946265 4.07302,-5.387245 4.10816,-5.4244 0.0531,-0.05612 0.11361,-0.03508 0.35771,0.124388 1.13543,0.741746 1.79072,1.481381 2.16175,2.439993 0.45229,1.16858 0.57982,2.820162 0.38892,5.037063 l -0.0673,0.781995 -0.43847,0.802949 c -0.24115,0.441621 -0.78545,1.422924 -1.20954,2.180675 -0.75875,1.355701 -1.33042,2.441424 -1.92378,3.653663 l -0.30101,0.614968 0.19651,0.242348 c 0.47702,0.588306 0.82255,1.191707 0.88455,1.544685 0.0302,0.172027 0.0251,0.179216 -0.16863,0.234812 -0.26024,0.07469 -0.57675,0.06942 -0.67961,-0.01132 -0.0449,-0.03524 -0.17885,-0.234593 -0.29769,-0.443007 -0.2152,-0.377402 -0.32198,-0.47084 -1.00001,-0.875097 -0.077,-0.04588 -0.13868,0.05031 -0.50716,0.790499 -0.23074,0.463505 -0.51966,1.06155 -0.64205,1.328983 -0.43832,0.95781 -0.99881,1.632662 -1.58857,1.912718 -0.39117,0.185753 -0.8993,0.211196 -1.41313,0.07076 z"
       id="path209-9"
       inkscape:export-xdpi="175.74057"
       inkscape:export-ydpi="175.74057" />
    <path
       style="display:inline;mix-blend-mode:normal;fill:#000000;fill-opacity:0;stroke-width:0.0504981"
       d="m 116.41185,87.055285 c -1.11785,-0.30552 -2.40852,-1.06013 -3.33655,-1.950752 -0.66305,-0.636336 -0.9311,-1.154496 -1.041,-2.012357 -0.072,-0.561771 0.0123,-1.187958 0.25335,-1.882947 0.24304,-0.700656 0.37934,-0.948127 1.3634,-2.475381 0.71799,-1.114335 1.50758,-2.191557 4.90018,-6.685229 2.22434,-2.946265 4.07302,-5.387245 4.10816,-5.4244 0.0531,-0.05612 0.11361,-0.03508 0.35771,0.124388 1.13543,0.741746 1.79072,1.481381 2.16175,2.439993 0.45229,1.16858 0.57982,2.820162 0.38892,5.037063 l -0.0673,0.781995 -0.43847,0.802949 c -0.24115,0.441621 -0.78545,1.422924 -1.20954,2.180675 -0.75875,1.355701 -1.33042,2.441424 -1.92378,3.653663 l -0.30101,0.614968 0.19651,0.242348 c 0.47702,0.588306 0.82255,1.191707 0.88455,1.544685 0.0302,0.172027 0.0251,0.179216 -0.16863,0.234812 -0.26024,0.07469 -0.57675,0.06942 -0.67961,-0.01132 -0.0449,-0.03524 -0.17885,-0.234593 -0.29769,-0.443007 -0.2152,-0.377402 -0.32198,-0.47084 -1.00001,-0.875097 -0.077,-0.04588 -0.13868,0.05031 -0.50716,0.790499 -0.23074,0.463505 -0.51966,1.06155 -0.64205,1.328983 -0.43832,0.95781 -0.99881,1.632662 -1.58857,1.912718 -0.39117,0.185753 -0.8993,0.211196 -1.41313,0.07076 z"
       id="path211-0"
       inkscape:export-xdpi="175.74057"
       inkscape:export-ydpi="175.74057" />
  </g>
  <g
     inkscape:groupmode="layer"
     id="layer2"
     inkscape:label="shield"
     style="display:inline">
    <ellipse
       style="fill:none;stroke-width:0.264583"
       id="path31"
       cx="102.62386"
       cy="57.512787"
       rx="12.205305"
       ry="9.1622114"
       inkscape:export-xdpi="175.74057"
       inkscape:export-ydpi="175.74057" />
    <ellipse
       style="fill:none;stroke-width:0.264583"
       id="path33"
       cx="103.58437"
       cy="63.896873"
       rx="8.8635416"
       ry="7.5406251"
       inkscape:export-xdpi="175.74057"
       inkscape:export-ydpi="175.74057" />
    <path
       style="fill:#ececec;stroke:#000000;stroke-width:0.316093px;stroke-linecap:butt;stroke-linejoin:miter;stroke-opacity:1"
       d="m 95.357915,56.038469 c 11.027815,0.705747 16.468065,9.02524 16.620525,14.988594 0.29727,11.62596 -6.75736,17.968387 -17.166343,18.247644 C 84.673391,89.546714 76.126204,85.089118 76.187949,72.950844 76.245189,61.698602 84.595744,55.815231 95.357915,56.038469 Z"
       id="path39"
       sodipodi:nodetypes="csssc"
       inkscape:export-xdpi="175.74057"
       inkscape:export-ydpi="175.74057" />
    <path
       style="fill:none;stroke:#000000;stroke-width:0.264583px;stroke-linecap:butt;stroke-linejoin:miter;stroke-opacity:1"
       d="m 100.54712,57.262344 c 0.53023,-0.09587 -8.274406,-2.25367 -15.999338,4.252421 -5.75325,4.845502 -5.54213,16.408912 0.259544,20.725203 3.192247,2.374946 8.461743,4.953023 15.100427,3.46766 6.606597,-1.478185 8.423917,-4.260044 11.351947,-8.259294"
       id="path184"
       sodipodi:nodetypes="csssc"
       inkscape:export-xdpi="175.74057"
       inkscape:export-ydpi="175.74057" />
    <path
       style="fill:#ffb380;fill-opacity:1;stroke-width:0.269916"
       d="m 345.63681,336.34655 c -26.60139,-2.67095 -44.36764,-14.12363 -52.20749,-33.65457 -3.54517,-8.83186 -4.75394,-16.33186 -4.53547,-28.14102 0.14049,-7.59444 0.52558,-10.84524 1.95071,-16.46735 6.15687,-24.28871 25.54434,-40.45378 53.43417,-44.55287 8.359,-1.22856 15.98603,-1.31329 22.81637,-0.25347 5.92376,0.91915 5.95496,0.99812 0.40488,1.02459 -8.95595,0.0427 -16.31667,1.27453 -24.52034,4.10345 -11.74316,4.04945 -23.69201,11.9426 -29.50475,19.49018 -4.61112,5.98734 -7.98631,14.08251 -9.54363,22.88977 -0.75504,4.26999 -1.02746,12.9031 -0.54748,17.34955 1.454,13.46973 7.20361,25.51484 15.29477,32.04172 9.61018,7.75222 21.93249,13.2577 34.24598,15.30074 4.2397,0.70344 15.72508,0.7043 19.97376,0.001 4.22411,-0.69875 9.99546,-2.11718 13.82973,-3.39893 12.57625,-4.20409 20.56969,-10.32187 29.75794,-22.77522 0.96291,-1.30509 1.78815,-2.26067 1.83386,-2.12353 0.12766,0.38297 -1.77025,4.96551 -3.24675,7.83934 -7.65645,14.90236 -21.08078,25.01229 -38.93579,29.32274 -7.04094,1.69978 -10.36983,2.06489 -19.70385,2.16108 -4.60206,0.0474 -9.46054,-0.0235 -10.79662,-0.15768 z"
       id="path188"
       transform="scale(0.26458333)"
       inkscape:export-xdpi="175.74057"
       inkscape:export-ydpi="175.74057" />
  </g>
  <g
     inkscape:groupmode="layer"
     id="layer6"
     inkscape:label="shield_shin"
     style="display:inline">
    <path
       style="fill:none;stroke:#000000;stroke-width:0.287058px;stroke-linecap:butt;stroke-linejoin:miter;stroke-opacity:1"
       d="m 98.361722,61.708002 1.008574,-2.42012 c 0,0 5.860804,0.860059 9.612824,6.298196 3.0264,4.386438 1.2338,8.909412 1.2338,8.909412 l -3.4234,1.134142 c 0,0 1.5025,-4.201666 -1.33663,-8.468016 -3.69028,-5.545372 -7.095168,-5.453614 -7.095168,-5.453614 z"
       id="path101"
       sodipodi:nodetypes="ccsccsc"
       inkscape:export-xdpi="175.74057"
       inkscape:export-ydpi="175.74057" />
    <path
       style="fill:#ffffff;fill-opacity:1;stroke-width:0.0714153"
       d="m 107.19059,74.847176 c 0.0841,-0.360979 0.11384,-0.874167 0.11521,-1.986441 0.002,-1.378122 -0.0135,-1.564516 -0.18765,-2.298891 -0.23929,-1.009147 -0.68703,-2.137658 -1.17733,-2.967378 -0.9555,-1.616967 -2.60352,-3.513728 -3.91388,-4.504624 -0.76502,-0.578512 -2.152386,-1.276909 -2.871674,-1.445596 l -0.514969,-0.120772 0.109098,-0.258829 c 0.255995,-0.607332 0.619604,-1.484622 0.675362,-1.629457 l 0.06027,-0.156567 0.793993,0.21273 c 4.38499,1.174845 8.41613,4.620262 9.73316,8.318952 0.38311,1.075889 0.51129,1.889506 0.51101,3.243591 -2.7e-4,1.25662 -0.0908,1.959221 -0.35943,2.790219 l -0.10552,0.326395 -1.40898,0.453652 c -0.77494,0.24951 -1.44567,0.466273 -1.49051,0.481695 -0.0565,0.01945 -0.0468,-0.12111 0.0318,-0.458679 z"
       id="path125"
       inkscape:export-xdpi="175.74057"
       inkscape:export-ydpi="175.74057" />
  </g>
</svg>
