<?xml version="1.0" encoding="UTF-8" standalone="no"?>
<svg
   xmlns:dc="http://purl.org/dc/elements/1.1/"
   xmlns:cc="http://creativecommons.org/ns#"
   xmlns:rdf="http://www.w3.org/1999/02/22-rdf-syntax-ns#"
   xmlns:svg="http://www.w3.org/2000/svg"
   xmlns="http://www.w3.org/2000/svg"
   xmlns:sodipodi="http://sodipodi.sourceforge.net/DTD/sodipodi-0.dtd"
   xmlns:inkscape="http://www.inkscape.org/namespaces/inkscape"
   width="210mm"
   height="297mm"
   viewBox="0 0 210 297"
   version="1.1"
   id="svg8"
   inkscape:version="1.0.1 (3bc2e813f5, 2020-09-07)"
   sodipodi:docname="SpaceShip.svg">
  <defs
     id="defs2" />
  <sodipodi:namedview
     id="base"
     pagecolor="#ffffff"
     bordercolor="#666666"
     borderopacity="1.0"
     inkscape:pageopacity="0.0"
     inkscape:pageshadow="2"
     inkscape:zoom="0.7"
     inkscape:cx="482.62637"
     inkscape:cy="479.80734"
     inkscape:document-units="mm"
     inkscape:current-layer="layer6"
     inkscape:document-rotation="0"
     showgrid="false"
     inkscape:window-width="1920"
     inkscape:window-height="1057"
     inkscape:window-x="-8"
     inkscape:window-y="-8"
     inkscape:window-maximized="1" />
  <metadata
     id="metadata5">
    <rdf:RDF>
      <cc:Work
         rdf:about="">
        <dc:format>image/svg+xml</dc:format>
        <dc:type
           rdf:resource="http://purl.org/dc/dcmitype/StillImage" />
        <dc:title></dc:title>
      </cc:Work>
    </rdf:RDF>
  </metadata>
  <g
     inkscape:label="templaet"
     inkscape:groupmode="layer"
     id="layer1"
     style="display:none"
     sodipodi:insensitive="true">
    <rect
       style="fill:#4d4d4d;stroke-width:0.355819"
       id="rect12"
       width="117.92857"
       height="117.92857"
       x="44.979164"
       y="47.473812" />
    <path
       style="fill:#000000;stroke-width:0.714286"
       d="m 170.56131,402.39252 v -222.5 h 222.5 222.5 v 222.5 222.5 h -222.5 -222.5 z"
       id="path32"
       transform="scale(0.26458333)" />
  </g>
  <g
     inkscape:groupmode="layer"
     id="layer2"
     inkscape:label="casco"
     style="display:inline"
     sodipodi:insensitive="true">
    <circle
       style="fill:#b3b3b3;stroke-width:0.375708"
       id="path17"
       cx="102.73395"
       cy="89.089005"
       r="40.254467"
       inkscape:export-filename="C:\Users\jazzj\path17.png"
       inkscape:export-xdpi="216.74667"
       inkscape:export-ydpi="216.74667" />
    <path
       style="fill:#ececec;stroke-width:0.505076"
       d="m 372.98669,487.86646 c -17.87431,-1.83119 -35.03563,-6.82865 -51.82416,-15.09143 -15.2871,-7.52383 -27.95747,-16.61002 -40.1142,-28.76675 -22.30328,-22.30328 -36.7609,-49.99051 -42.35129,-81.10531 -2.51384,-13.99144 -2.76847,-35.13152 -0.5898,-48.96631 9.60556,-60.99625 54.29896,-109.92221 113.91878,-124.70712 26.26235,-6.51271 55.9512,-5.58314 81.6845,2.55758 43.80879,13.85888 79.10422,46.79444 95.99878,89.58027 4.16452,10.54674 7.04004,21.51466 9.00231,34.33704 0.92394,6.0374 1.12798,9.58554 1.16178,20.20305 0.0252,7.89655 -0.21659,14.93122 -0.62482,18.18274 -5.65159,45.01505 -29.67074,84.10786 -67.01439,109.07053 -20.24995,13.53623 -42.4698,21.60679 -67.42769,24.49066 -7.40909,0.85611 -24.43891,0.97121 -31.8198,0.21505 z"
       id="path62"
       transform="scale(0.26458333)"
       inkscape:export-filename="C:\Users\jazzj\path17.png"
       inkscape:export-xdpi="216.74667"
       inkscape:export-ydpi="216.74667" />
  </g>
  <g
     inkscape:groupmode="layer"
     id="layer7"
     inkscape:label="casco 5">
    <path
       style="display:inline;opacity:1;fill:#550000;stroke:#000000;stroke-width:0.264583px;stroke-linecap:butt;stroke-linejoin:miter;stroke-opacity:1"
       d="m 62.445836,88.087659 c 0,0 7.164484,12.706471 40.465404,12.821311 32.69593,0.11275 39.82114,-13.232698 39.82114,-13.232698 0,0 20.97769,55.274198 18.70982,64.534618 -3.2128,4.91369 -11.42667,6.93386 -20.41072,9.4494 -9.4494,2.64584 -23.8606,4.60061 -25.46421,2.86336 -0.53454,-3.20724 -2.01472,-13.61558 -11.83462,-13.74441 -10.29957,-0.13512 -9.40111,10.74651 -10.603824,14.22101 -2.939965,0.93544 -18.262636,-1.35093 -26.144326,-3.2941 -9.060786,-2.23387 -16.667311,-6.66044 -19.502133,-12.51907 -1.322916,-7.18155 14.963469,-61.099421 14.963469,-61.099421 z"
       id="path20-0"
       sodipodi:nodetypes="csccscscscc"
       inkscape:export-filename="C:\Users\jazzj\path17.png"
       inkscape:export-xdpi="216.74667"
       inkscape:export-ydpi="216.74667" />
    <path
       style="fill:none;stroke:#000000;stroke-width:0.264583px;stroke-linecap:butt;stroke-linejoin:miter;stroke-opacity:1"
       d="m 90.714284,163.85267 2.41454,1.14758"
       id="path154"
       inkscape:export-filename="C:\Users\jazzj\path17.png"
       inkscape:export-xdpi="216.74667"
       inkscape:export-ydpi="216.74667" />
    <path
       style="fill:none;stroke:#000000;stroke-width:0.264583px;stroke-linecap:butt;stroke-linejoin:miter;stroke-opacity:1"
       d="m 117.17262,163.09673 -1.60535,1.42692"
       id="path156"
       inkscape:export-filename="C:\Users\jazzj\path17.png"
       inkscape:export-xdpi="216.74667"
       inkscape:export-ydpi="216.74667" />
    <path
       style="fill:none;stroke:#000000;stroke-width:0.264583px;stroke-linecap:butt;stroke-linejoin:miter;stroke-opacity:1"
       d="m 47.624999,147.5997 -0.142634,1.58738"
       id="path158"
       inkscape:export-filename="C:\Users\jazzj\path17.png"
       inkscape:export-xdpi="216.74667"
       inkscape:export-ydpi="216.74667" />
    <path
       style="fill:none;stroke:#000000;stroke-width:0.264583px;stroke-linecap:butt;stroke-linejoin:miter;stroke-opacity:1"
       d="m 161.58482,150.62351 -0.14262,1.58738"
       id="path160"
       inkscape:export-filename="C:\Users\jazzj\path17.png"
       inkscape:export-xdpi="216.74667"
       inkscape:export-ydpi="216.74667" />
  </g>
  <g
     inkscape:groupmode="layer"
     id="layer3"
     inkscape:label="casco 1"
     style="display:inline;opacity:1">
    <path
       style="fill:#4d4d4d;stroke:#000000;stroke-width:0.264583px;stroke-linecap:butt;stroke-linejoin:miter;stroke-opacity:1"
       d="m 62.588467,86.50021 c 0,0 7.164484,12.706542 40.465393,12.821382 32.69593,0.11275 39.82114,-13.232767 39.82114,-13.232767 0,0 20.97768,55.274265 18.70982,64.534685 -3.2128,4.91369 -11.42667,6.93386 -20.41072,9.4494 -9.4494,2.64584 -22.39787,4.76107 -24.00148,3.02382 -0.53454,-3.20724 -0.56817,-15.08475 -13.41816,-14.90876 -13.798756,0.18899 -11.837462,12.1902 -13.040175,15.6647 -2.939965,0.93544 -15.705465,-1.79073 -23.587154,-3.7339 C 58.066345,157.8849 50.45982,153.45833 47.624999,147.5997 46.302082,140.41815 62.588467,86.50021 62.588467,86.50021 Z"
       id="path20"
       sodipodi:nodetypes="csccscscscc"
       inkscape:export-filename="C:\Users\jazzj\path17.png"
       inkscape:export-xdpi="216.74667"
       inkscape:export-ydpi="216.74667" />
    <path
       style="fill:none;stroke:#000000;stroke-width:0.264583px;stroke-linecap:butt;stroke-linejoin:miter;stroke-opacity:1"
       d="m 60.127291,94.847271 c 0,0 12.39779,14.656839 42.303749,14.968899 30.18247,0.31494 43.62874,-15.065765 43.62874,-15.065765"
       id="path22"
       sodipodi:nodetypes="csc"
       inkscape:export-filename="C:\Users\jazzj\path17.png"
       inkscape:export-xdpi="216.74667"
       inkscape:export-ydpi="216.74667" />
    <path
       style="fill:none;stroke:#000000;stroke-width:0.264583px;stroke-linecap:butt;stroke-linejoin:miter;stroke-opacity:1"
       d="m 55.835708,110.05969 c 0,0 16.442102,7.01907 21.806088,10.74613 5.896143,4.09682 15.501633,18.57524 24.722424,18.8425 9.2208,0.26727 20.13152,-14.45287 28.33058,-20.84702 6.53054,-5.09293 20.74163,-8.64342 20.74163,-8.64342"
       id="path24"
       sodipodi:nodetypes="csssc"
       inkscape:export-filename="C:\Users\jazzj\path17.png"
       inkscape:export-xdpi="216.74667"
       inkscape:export-ydpi="216.74667" />
    <path
       style="fill:#800000;stroke-width:0.714286"
       d="m 327.34702,618.69644 c -25.49863,-3.1861 -68.27094,-12.23573 -87.2847,-18.4674 -25.53111,-8.36773 -45.95643,-21.98006 -56.06636,-37.36509 l -3.59542,-5.47143 0.40943,-6.78571 c 0.81682,-13.53782 5.69369,-37.42778 15.82075,-77.5 5.08724,-20.12991 14.51098,-55.47565 14.88384,-55.82502 0.57337,-0.53723 45.06147,20.1193 60.47532,28.07966 20.75923,10.72093 23.00036,12.49181 49.62285,39.21054 17.27551,17.33796 25.69496,25.23974 31.44858,29.51496 24.47249,18.18426 41.65529,18.97067 65.89581,3.01588 11.93961,-7.85849 18.70467,-13.75861 45.8899,-40.02271 20.7606,-20.05716 27.88077,-26.37663 35.01189,-31.07463 5.52895,-3.64249 17.80251,-9.88897 26.41668,-13.44446 16.63901,-6.86773 44.48287,-15.66048 45.63317,-14.4104 0.67296,0.73133 10.73355,30.9232 16.43928,49.33436 16.41075,52.95387 24.61607,91.17696 21.56043,100.43563 -1.78287,5.40214 -11.50813,13.28437 -23.18815,18.79378 -15.87584,7.48854 -58.83673,19.90475 -89.90534,25.98371 -22.30939,4.36511 -45.29787,6.30644 -51.0273,4.30915 -2.07218,-0.72237 -2.15332,-0.92961 -3.00634,-7.67857 -3.52341,-27.87646 -14.4437,-42.98361 -35.07717,-48.52583 -6.93075,-1.86162 -24.08748,-1.64353 -31.65283,0.40235 -14.08697,3.80953 -22.76745,11.6681 -27.64203,25.02478 -2.22853,6.10632 -2.99934,9.84281 -4.65234,22.55223 -0.61037,4.69291 -1.45773,8.95184 -1.88303,9.46429 -0.74279,0.895 -8.93445,1.14871 -14.52692,0.44993 z"
       id="path37"
       transform="scale(0.26458333)"
       inkscape:export-filename="C:\Users\jazzj\path17.png"
       inkscape:export-xdpi="216.74667"
       inkscape:export-ydpi="216.74667" />
    <path
       style="fill:#aa0000;stroke-width:0.505076"
       d="m 382.92567,526.69929 c -9.16505,-1.36216 -20.48974,-7.13519 -31.80346,-16.21257 -7.75847,-6.22488 -17.02808,-15.08425 -30.47432,-29.12564 -19.32969,-20.18523 -23.81896,-24.06814 -35.97942,-31.11972 -10.87361,-6.30535 -43.01972,-21.80357 -65.48072,-31.56943 -4.06831,-1.76887 -7.32612,-3.45676 -7.23957,-3.75085 0.0865,-0.2941 3.62105,-12.73514 7.85443,-27.64676 l 7.69706,-27.11204 4.4946,4.13107 c 25.22398,23.18379 64.18193,40.33003 107.98005,47.52437 17.69846,2.90716 26.69134,3.54111 50.25509,3.54269 22.2127,0.002 28.27277,-0.35484 43.18402,-2.5391 45.62746,-6.68372 85.86539,-23.95409 113.65971,-48.78346 l 4.81578,-4.30205 5.40654,15.20345 c 7.63595,21.47264 14.00029,39.86399 14.00027,40.45726 -1e-5,0.2778 -2.44252,1.15879 -5.42781,1.95776 -8.01807,2.14592 -28.10479,8.8404 -36.49,12.16135 -9.45757,3.74565 -22.20614,9.90918 -28.24947,13.65771 -8.98361,5.57231 -15.83701,11.60391 -41.03609,36.11533 -21.27748,20.69685 -30.02915,28.33689 -40.79126,35.61001 -13.97915,9.44723 -25.99101,13.34402 -36.37543,11.80062 z"
       id="path64"
       transform="scale(0.26458333)"
       inkscape:export-filename="C:\Users\jazzj\path17.png"
       inkscape:export-xdpi="216.74667"
       inkscape:export-ydpi="216.74667" />
    <path
       style="fill:#999999;stroke-width:0.505076"
       d="m 368.00605,413.57975 c -45.86497,-3.39869 -85.03699,-15.54853 -116.16754,-36.03124 -10.34267,-6.80508 -23.4829,-17.7672 -23.48775,-19.59446 -0.002,-0.69097 8.07243,-28.29496 8.36867,-28.61046 0.0981,-0.10448 1.93491,1.67727 4.08181,3.95943 19.63157,20.86848 56.44586,35.09738 104.47638,40.38061 15.80887,1.73893 25.7307,2.23004 45.20433,2.23749 19.32825,0.007 28.47666,-0.45103 43.6891,-2.18922 38.11663,-4.35527 68.71144,-14.84483 89.90091,-30.82294 4.5377,-3.42169 12.91097,-11.59136 14.65524,-14.29889 0.67144,-1.04224 1.01916,-1.24712 1.28582,-0.75762 0.20103,0.36902 2.78873,7.24246 5.75043,15.27432 l 5.38493,14.60338 -2.4252,2.48747 c -9.31435,9.5535 -25.96143,20.88488 -42.8313,29.15451 -27.48574,13.47355 -56.93885,21.1949 -91.5848,24.0096 -9.98008,0.81081 -36.5009,0.92423 -46.30103,0.19802 z"
       id="path66"
       transform="scale(0.26458333)"
       inkscape:export-filename="C:\Users\jazzj\path17.png"
       inkscape:export-xdpi="216.74667"
       inkscape:export-ydpi="216.74667" />
  </g>
  <g
     inkscape:groupmode="layer"
     id="layer4"
     inkscape:label="casco 2"
     style="display:inline">
    <path
       style="display:inline;opacity:1;fill:#ffffff;stroke:#000000;stroke-width:0.394224px;stroke-linecap:butt;stroke-linejoin:miter;stroke-opacity:1"
       d="m 95.720827,60.697087 c 0,0 -9.097956,4.858935 -12.975255,11.038647 -3.543037,5.646961 -2.494071,19.261982 -3.02861,21.266503 -1.469982,0 -6.530906,-1.123754 -9.936085,-3.445424 -3.695626,-2.283525 -5.474735,-5.338359 -5.474735,-5.338359 0,0 -0.35893,-8.067689 9.144063,-20.686766 6.817343,-9.052787 20.516956,-13.528165 21.719669,-13.39453 1.069078,0.400904 0.550953,10.559929 0.550953,10.559929 z"
       id="path43"
       sodipodi:nodetypes="cscccscc"
       inkscape:export-filename="C:\Users\jazzj\path17.png"
       inkscape:export-xdpi="216.74667"
       inkscape:export-ydpi="216.74667" />
    <circle
       style="fill:#ffcc00;stroke-width:0.264583"
       id="path68"
       cx="93.960693"
       cy="104.07461"
       r="4.1426778"
       inkscape:export-filename="C:\Users\jazzj\path17.png"
       inkscape:export-xdpi="216.74667"
       inkscape:export-ydpi="216.74667" />
    <circle
       style="display:inline;fill:#ffcc00;stroke-width:0.264583"
       id="path68-4"
       cx="112.2532"
       cy="104.23512"
       r="4.1426778"
       inkscape:export-filename="C:\Users\jazzj\path17.png"
       inkscape:export-xdpi="216.74667"
       inkscape:export-ydpi="216.74667" />
    <path
       style="fill:#ffeeaa;stroke-width:0.0446429"
       d="m 341.41214,400.85725 c -0.90964,-1.63792 -1.53169,-3.55822 -1.80342,-5.56728 -0.11389,-0.84206 -0.11431,-3.07395 -7.4e-4,-3.87904 0.38004,-2.69391 1.27808,-4.99432 2.77266,-7.10245 0.98611,-1.39093 2.35276,-2.74916 3.78756,-3.76422 2.13029,-1.50709 4.83181,-2.50762 7.42151,-2.74861 0.76446,-0.0711 1.79422,-0.10681 1.72668,-0.0598 -0.0484,0.0337 -0.0303,0.34081 0.10077,1.71056 0.17462,1.82438 0.18227,1.95965 0.11082,1.95965 -0.12418,0 -1.39285,0.54318 -2.09452,0.89677 -1.83997,0.9272 -3.23777,1.93276 -4.53286,3.26089 -0.69849,0.71631 -1.0569,1.15733 -1.59156,1.95842 -1.62735,2.43823 -2.51508,5.97848 -2.32096,9.2559 0.0769,1.29825 0.30484,2.71637 0.58404,3.63353 l 0.0846,0.27783 -0.14064,0.0218 c -0.0773,0.012 -0.91408,0.0436 -1.85939,0.0702 -0.94531,0.0266 -1.77999,0.0576 -1.85483,0.069 -0.12521,0.019 -0.13468,0.0327 -0.1185,0.17137 0.0379,0.32433 -0.0188,0.28994 -0.2712,-0.16446 z"
       id="path87"
       transform="scale(0.26458333)"
       inkscape:export-filename="C:\Users\jazzj\path17.png"
       inkscape:export-xdpi="216.74667"
       inkscape:export-ydpi="216.74667" />
    <path
       style="display:inline;fill:#ffeeaa;stroke-width:0.0118118"
       d="m 108.63727,106.22255 c -0.24067,-0.43336 -0.40525,-0.94144 -0.47715,-1.47301 -0.0301,-0.22279 -0.0302,-0.81331 -2e-4,-1.02633 0.10056,-0.71276 0.33816,-1.32141 0.7336,-1.87918 0.26091,-0.36802 0.6225,-0.72739 1.00213,-0.99595 0.56364,-0.39876 1.27842,-0.66348 1.96361,-0.72724 0.20226,-0.0188 0.47472,-0.0283 0.45685,-0.0158 -0.0128,0.009 -0.008,0.0902 0.0267,0.45258 0.0462,0.4827 0.0482,0.51849 0.0293,0.51849 -0.0329,0 -0.36852,0.14372 -0.55417,0.23727 -0.48683,0.24533 -0.85666,0.51138 -1.19932,0.86278 -0.18481,0.18952 -0.27964,0.30621 -0.4211,0.51817 -0.43057,0.64511 -0.66545,1.5818 -0.61409,2.44895 0.0203,0.3435 0.0807,0.71871 0.15453,0.96137 l 0.0224,0.0735 -0.0372,0.006 c -0.0205,0.003 -0.24185,0.0115 -0.49196,0.0186 -0.25012,0.007 -0.47096,0.0152 -0.49076,0.0182 -0.0331,0.005 -0.0356,0.009 -0.0314,0.0453 0.01,0.0858 -0.005,0.0767 -0.0718,-0.0435 z"
       id="path87-8"
       inkscape:export-filename="C:\Users\jazzj\path17.png"
       inkscape:export-xdpi="216.74667"
       inkscape:export-ydpi="216.74667" />
    <path
       style="fill:none;stroke:#000000;stroke-width:0.264583px;stroke-linecap:butt;stroke-linejoin:miter;stroke-opacity:1"
       d="m 62.588467,86.50021 c 0.03341,-2.405426 1.805595,-19.575456 15.688096,-29.404757 13.639834,-9.657485 23.219037,-8.251947 26.125597,-8.218538 0,0 20.17471,0.244195 32.03893,18.374778 3.98428,6.088673 5.49847,12.689933 6.43391,18.837132"
       id="path104"
       sodipodi:nodetypes="cscsc"
       inkscape:export-filename="C:\Users\jazzj\path17.png"
       inkscape:export-xdpi="216.74667"
       inkscape:export-ydpi="216.74667" />
    <path
       style="fill:#ffffff;stroke-width:0.714286"
       d="m 530.91759,331.93705 c -2.19496,-18.67578 -11.44393,-52.23368 -26.89635,-73.88462 -8.64095,-12.10716 -27.30935,-28.57446 -39.44493,-37.82964 -10.85567,-8.27905 -43.06363,-27.97084 -95.33779,-27.08971 -1.81097,0.0305 -1.61727,-5.35606 -1.3305,-6.10336 0.21998,-0.57328 7.3936,-1.10256 8.23959,-1.20208 4.56999,-0.53761 16.01536,-0.90599 24.28507,-0.19319 8.85151,0.76294 41.6115,5.91206 71.92174,26.24022 9.61385,6.44772 16.07022,11.86853 24.47887,20.55585 22.49838,23.24401 34.30008,47.77457 40.92378,85.06253 1.18627,6.67813 1.22994,7.83988 0.34231,9.10715 -1.58268,2.25959 -6.69545,9.47476 -7.18179,5.33685 z"
       id="path108"
       transform="scale(0.26458333)"
       sodipodi:nodetypes="ssssssssssss"
       inkscape:export-filename="C:\Users\jazzj\path17.png"
       inkscape:export-xdpi="216.74667"
       inkscape:export-ydpi="216.74667" />
    <path
       style="fill:#cccccc;stroke-width:0.252538"
       d="m 296.88901,399.3673 c -16.48911,-5.75636 -32.02415,-13.36956 -45.37608,-22.23729 -10.3486,-6.87305 -22.95982,-17.43196 -22.96579,-19.22841 -0.003,-0.94032 7.83809,-27.59323 8.23558,-27.99337 0.1664,-0.1675 1.6783,1.18557 4.498,4.02547 5.45429,5.49337 9.45761,8.73968 16.01941,12.99018 12.26511,7.94491 28.82209,14.82527 46.87888,19.48083 2.06763,0.5331 3.78633,1.00251 3.81933,1.04315 0.033,0.0406 -1.43,7.46561 -3.25111,16.49996 -1.82111,9.03434 -3.3145,16.51132 -3.31865,16.61551 -0.0134,0.33624 -0.5719,0.18909 -4.53957,-1.19603 z"
       id="path112"
       transform="scale(0.26458333)"
       inkscape:export-filename="C:\Users\jazzj\path17.png"
       inkscape:export-xdpi="216.74667"
       inkscape:export-ydpi="216.74667" />
    <path
       style="fill:#d40000;stroke-width:0.252538"
       d="m 278.89365,446.91946 c -4.70295,-2.47359 -25.97346,-12.96574 -32.12523,-15.84649 -8.96416,-4.19773 -16.00772,-7.41307 -24.02773,-10.96853 -8.13909,-3.60824 -10.4964,-4.81346 -10.49825,-5.36739 -10e-4,-0.40092 15.1799,-53.98774 15.34067,-54.14958 0.053,-0.0534 1.15991,0.89341 2.45971,2.10402 17.60421,16.39612 39.76155,29.11723 67.32404,38.65249 1.49486,0.51714 6.00242,1.91089 6.00242,1.91089 l -14.1756,49.38586 c 0,0 -8.02106,-4.52261 -10.30003,-5.72127 z"
       id="path116"
       transform="scale(0.26458333)"
       sodipodi:nodetypes="ssscscsccs"
       inkscape:export-filename="C:\Users\jazzj\path17.png"
       inkscape:export-xdpi="216.74667"
       inkscape:export-ydpi="216.74667" />
    <path
       style="fill:#d40000;stroke-width:0.505076"
       d="m 253.78127,603.93946 c -0.69524,-0.22865 -4.22153,-1.23939 -7.83619,-2.24607 -16.90416,-4.7078 -34.77913,-13.49367 -46.47034,-22.84101 -5.43261,-4.34348 -11.93337,-11.29237 -15.52381,-16.59395 l -3.20106,-4.72663 0.30165,-5.84674 c 0.55722,-10.80017 3.12049,-25.02655 9.33379,-51.80335 5.51646,-23.77366 20.41323,-80.87679 21.35464,-81.85774 1.26069,-1.31364 73.92557,33.54703 75.62887,36.28264 0.13969,0.22436 -0.27913,1.6274 -0.93074,3.11786 -2.03616,4.65748 -9.59737,25.05098 -12.81686,34.5686 -3.97439,11.74934 -9.0009,29.43274 -10.92154,38.42234 -2.11055,9.87848 -4.37514,32.46377 -5.44598,54.31411 -1.07623,21.96043 -0.74141,20.10813 -3.47243,19.20994 z"
       id="path120"
       transform="scale(0.26458333)"
       inkscape:export-filename="C:\Users\jazzj\path17.png"
       inkscape:export-xdpi="216.74667"
       inkscape:export-ydpi="216.74667" />
  </g>
  <g
     inkscape:groupmode="layer"
     id="layer5"
     inkscape:label="casco 3"
     style="display:inline">
    <path
       style="fill:#cccccc;fill-opacity:1;stroke-width:0.505076"
       d="m 520.65824,363.2763 c -4.15579,-6.93228 -7.46652,-12.66673 -7.35719,-12.74323 0.10933,-0.0765 2.92145,-1.9477 6.24914,-4.15822 4.60913,-3.06175 7.75393,-5.71524 13.20207,-11.13954 l 7.15172,-7.12042 5.36841,14.50523 c 2.95262,7.97787 5.36893,14.70471 5.36957,14.94853 10e-4,0.51188 -5.02016,5.37653 -9.06827,8.785 -3.25001,2.73649 -12.57609,9.55957 -13.03989,9.54016 -0.17577,-0.007 -3.71978,-5.68524 -7.87556,-12.61751 z"
       id="path127"
       transform="scale(0.26458333)"
       inkscape:export-filename="C:\Users\jazzj\path17.png"
       inkscape:export-xdpi="216.74667"
       inkscape:export-ydpi="216.74667" />
    <path
       style="fill:#d40000;fill-opacity:1;stroke-width:0.505076"
       d="m 533.05335,402.285 -3.88018,-24.10581 3.65676,-2.53502 c 4.37826,-3.03518 10.84272,-8.18188 15.19521,-12.0977 1.74258,-1.56775 3.36051,-2.85096 3.5954,-2.85158 0.23489,-6.2e-4 0.54469,0.39632 0.68844,0.88208 0.14375,0.48575 4.25924,12.23692 9.14555,26.1137 4.8863,13.87678 9.02914,25.82461 9.2063,26.55073 0.32079,1.31476 0.28856,1.33021 -7.79526,3.73599 -4.46456,1.32868 -12.11857,3.76588 -17.00892,5.41601 -4.89035,1.65012 -8.89865,2.99959 -8.90733,2.99881 -0.009,-9.9e-4 -1.76187,-10.84902 -3.89597,-24.10721 z"
       id="path129"
       transform="scale(0.26458333)"
       inkscape:export-filename="C:\Users\jazzj\path17.png"
       inkscape:export-xdpi="216.74667"
       inkscape:export-ydpi="216.74667" />
    <path
       style="fill:#d40000;fill-opacity:1;stroke-width:0.505076"
       d="m 547.09181,514.12427 c -5.19186,-45.61382 -9.55653,-83.5368 -9.69927,-84.2733 -0.25877,-1.33513 -0.22512,-1.35052 11.37543,-5.20291 6.39922,-2.12509 14.05354,-4.47662 17.0096,-5.22562 5.03401,-1.2755 5.41492,-1.30702 6.01018,-0.49743 1.18832,1.61616 13.9189,40.35617 20.33207,61.87181 11.26847,37.80478 17.65912,66.39186 17.82933,79.75538 0.0836,6.56116 0.0356,6.90609 -1.27284,9.14518 -3.80405,6.50997 -15.72714,14.48043 -29.88749,19.97946 -5.56396,2.16072 -20.98716,7.37829 -21.81674,7.38048 -0.24229,6.3e-4 -4.68841,-37.31924 -9.88027,-82.93305 z"
       id="path131"
       transform="scale(0.26458333)"
       inkscape:export-filename="C:\Users\jazzj\path17.png"
       inkscape:export-xdpi="216.74667"
       inkscape:export-ydpi="216.74667" />
  </g>
  <g
     inkscape:groupmode="layer"
     id="layer6"
     inkscape:label="casco 4"
     style="display:inline" />
</svg>
